<svg width="16" height="16" viewBox="0 0 16 16" fill="none" xmlns="http://www.w3.org/2000/svg">
<g clip-path="url(#clip0_14_87)">
<path d="M14.5527 3.04812C14.3725 2.83715 14.1469 2.66747 13.8919 2.55113C13.6368 2.4348 13.3587 2.37466 13.0771 2.375H2.71794L2.69103 2.15562C2.63596 1.69964 2.41129 1.27921 2.0596 0.974049C1.70791 0.66889 1.25366 0.500214 0.782963 0.5L0.640723 0.5C0.470792 0.5 0.307822 0.565848 0.187663 0.683058C0.0675045 0.800268 0 0.95924 0 1.125C0 1.29076 0.0675045 1.44973 0.187663 1.56694C0.307822 1.68415 0.470792 1.75 0.640723 1.75H0.782963C0.939897 1.75002 1.09137 1.80622 1.20864 1.90795C1.32592 2.00967 1.40084 2.14984 1.4192 2.30187L2.30083 9.61437C2.39236 10.3749 2.76695 11.0761 3.35348 11.585C3.94002 12.0939 4.69768 12.375 5.48266 12.375H12.1737C12.3437 12.375 12.5066 12.3092 12.6268 12.1919C12.7469 12.0747 12.8145 11.9158 12.8145 11.75C12.8145 11.5842 12.7469 11.4253 12.6268 11.3081C12.5066 11.1908 12.3437 11.125 12.1737 11.125H5.48266C5.08609 11.1239 4.69957 11.0032 4.37609 10.7794C4.05262 10.5556 3.80801 10.2397 3.67583 9.875H11.3132C12.0644 9.87504 12.7916 9.61764 13.3679 9.14777C13.9442 8.6779 14.333 8.02544 14.4662 7.30437L14.9692 4.58312C15.0194 4.31313 15.0081 4.03567 14.9362 3.7704C14.8642 3.50513 14.7333 3.25855 14.5527 3.04812ZM13.7115 4.36125L13.2079 7.0825C13.1278 7.51562 12.8942 7.90749 12.5478 8.1895C12.2014 8.4715 11.7644 8.62567 11.3132 8.625H3.47208L2.86916 3.625H13.0771C13.1713 3.62445 13.2644 3.64414 13.3498 3.68266C13.4352 3.72118 13.5109 3.77759 13.5715 3.84788C13.632 3.91817 13.676 4.00061 13.7002 4.08934C13.7244 4.17806 13.7282 4.2709 13.7115 4.36125Z" fill="#7F7C89"/>
<path d="M4.48506 15.5C5.19278 15.5 5.7665 14.9404 5.7665 14.25C5.7665 13.5596 5.19278 13 4.48506 13C3.77734 13 3.20361 13.5596 3.20361 14.25C3.20361 14.9404 3.77734 15.5 4.48506 15.5Z" fill="#7F7C89"/>
<path d="M10.8923 15.5C11.6 15.5 12.1737 14.9404 12.1737 14.25C12.1737 13.5596 11.6 13 10.8923 13C10.1846 13 9.61084 13.5596 9.61084 14.25C9.61084 14.9404 10.1846 15.5 10.8923 15.5Z" fill="#7F7C89"/>
</g>
<defs>
<clipPath id="clip0_14_87">
<rect width="16" height="15" fill="white" transform="translate(0 0.5)"/>
</clipPath>
</defs>
</svg>
