<svg width="65" height="70" viewBox="0 0 65 70" fill="none" xmlns="http://www.w3.org/2000/svg">
<path d="M55.3666 29.1666H49.5385V24.7916C49.5385 20.7725 46.2719 17.5 42.2534 17.5H7.28507C3.26663 17.5 0 20.7725 0 24.7916V56.8749C0 64.1112 5.88343 69.9999 13.1131 69.9999H36.4254C43.1626 69.9999 48.7313 64.887 49.4569 58.3333H55.3666C60.1864 58.3333 64.1087 54.4074 64.1087 49.5833V37.9166C64.1087 33.0925 60.1864 29.1666 55.3666 29.1666ZM36.4254 67.0833H13.1131C7.48906 67.0833 2.91403 62.5041 2.91403 56.8749V24.7916C2.91403 22.3796 4.87517 20.4166 7.28507 20.4166H42.2534C44.6633 20.4166 46.6245 22.3796 46.6245 24.7916V56.8749C46.6245 62.5041 42.0494 67.0833 36.4254 67.0833ZM61.1946 49.5833C61.1946 52.8004 58.5807 55.4166 55.3666 55.4166H49.5385V32.0833H55.3666C58.5807 32.0833 61.1946 34.6995 61.1946 37.9166V49.5833ZM23.3122 10.2083V1.45833C23.3122 0.653333 23.965 0 24.7693 0C25.5735 0 26.2263 0.653333 26.2263 1.45833V10.2083C26.2263 11.0133 25.5735 11.6667 24.7693 11.6667C23.965 11.6667 23.3122 11.0133 23.3122 10.2083ZM34.9684 10.2083V1.45833C34.9684 0.653333 35.6211 0 36.4254 0C37.2296 0 37.8824 0.653333 37.8824 1.45833V10.2083C37.8824 11.0133 37.2296 11.6667 36.4254 11.6667C35.6211 11.6667 34.9684 11.0133 34.9684 10.2083ZM11.6561 10.2083V1.45833C11.6561 0.653333 12.3089 0 13.1131 0C13.9174 0 14.5701 0.653333 14.5701 1.45833V10.2083C14.5701 11.0133 13.9174 11.6667 13.1131 11.6667C12.3089 11.6667 11.6561 11.0133 11.6561 10.2083Z" fill="#2D253D"/>
</svg>
