<svg width="85" height="37" viewBox="0 0 85 37" fill="none" xmlns="http://www.w3.org/2000/svg">
<path d="M41.8173 8.79462H37.9583V18.8076H35.6293V8.79462H31.7703V6.73762H41.8173V8.79462ZM52.4616 16.7506V18.8076H44.0806V6.73762H52.3086V8.79462H46.4266V11.7016H51.5096V13.6056H46.4266V16.7506H52.4616ZM58.3366 6.73762H60.7166L65.1536 18.8076H62.7396L61.6176 15.7986H57.4016L56.2966 18.8076H53.8826L58.3366 6.73762ZM61.1926 14.1496L59.5266 9.16862L57.7926 14.1496H61.1926Z" fill="white"/>
<path fill-rule="evenodd" clip-rule="evenodd" d="M12.3387 0H0V12.8077C0 19.8812 5.52422 25.6154 12.3387 25.6154H24.6774V12.8077C24.6774 5.7342 19.1532 0 12.3387 0ZM12.3387 4.80289H4.62702V12.8077C4.62702 17.2286 8.07966 20.8125 12.3387 20.8125H20.0504V12.8077C20.0504 8.38676 16.5978 4.80289 12.3387 4.80289Z" fill="white" fill-opacity="0.79"/>
<path d="M32.6003 35.3076V26.7876H33.4403V34.5636H38.3603V35.3076H32.6003ZM45.3477 35.4276C44.8997 35.4276 44.4837 35.3436 44.0997 35.1756C43.7157 34.9996 43.3837 34.7636 43.1037 34.4676C42.8237 34.1636 42.6037 33.8156 42.4437 33.4236C42.2917 33.0316 42.2157 32.6116 42.2157 32.1636C42.2157 31.5796 42.3477 31.0436 42.6117 30.5556C42.8837 30.0676 43.2557 29.6796 43.7277 29.3916C44.1997 29.0956 44.7357 28.9476 45.3357 28.9476C45.9517 28.9476 46.4877 29.0956 46.9437 29.3916C47.4077 29.6876 47.7717 30.0796 48.0357 30.5676C48.2997 31.0476 48.4317 31.5756 48.4317 32.1516C48.4317 32.2156 48.4317 32.2796 48.4317 32.3436C48.4317 32.3996 48.4277 32.4436 48.4197 32.4756H43.0677C43.1077 32.9236 43.2317 33.3236 43.4397 33.6756C43.6557 34.0196 43.9317 34.2956 44.2677 34.5036C44.6117 34.7036 44.9837 34.8036 45.3837 34.8036C45.7917 34.8036 46.1757 34.6996 46.5357 34.4916C46.9037 34.2836 47.1597 34.0116 47.3037 33.6756L48.0117 33.8676C47.8837 34.1636 47.6877 34.4316 47.4237 34.6716C47.1597 34.9116 46.8477 35.0996 46.4877 35.2356C46.1357 35.3636 45.7557 35.4276 45.3477 35.4276ZM43.0437 31.8876H47.6637C47.6317 31.4316 47.5077 31.0316 47.2917 30.6876C47.0837 30.3436 46.8077 30.0756 46.4637 29.8836C46.1277 29.6836 45.7557 29.5836 45.3477 29.5836C44.9397 29.5836 44.5677 29.6836 44.2317 29.8836C43.8957 30.0756 43.6197 30.3476 43.4037 30.6996C43.1957 31.0436 43.0757 31.4396 43.0437 31.8876ZM52.5467 33.5076C52.5467 33.1156 52.6587 32.7796 52.8827 32.4996C53.1067 32.2116 53.4147 31.9916 53.8067 31.8396C54.2067 31.6796 54.6667 31.5996 55.1867 31.5996C55.4907 31.5996 55.8067 31.6236 56.1347 31.6716C56.4627 31.7196 56.7547 31.7916 57.0107 31.8876V31.3596C57.0107 30.8316 56.8547 30.4116 56.5427 30.0996C56.2307 29.7876 55.7987 29.6316 55.2467 29.6316C54.9107 29.6316 54.5787 29.6956 54.2507 29.8236C53.9307 29.9436 53.5947 30.1236 53.2427 30.3636L52.9307 29.7876C53.3387 29.5076 53.7387 29.2996 54.1307 29.1636C54.5227 29.0196 54.9227 28.9476 55.3307 28.9476C56.0987 28.9476 56.7067 29.1676 57.1547 29.6076C57.6027 30.0476 57.8267 30.6556 57.8267 31.4316V34.3236C57.8267 34.4356 57.8507 34.5196 57.8987 34.5756C57.9467 34.6236 58.0227 34.6516 58.1267 34.6596V35.3076C58.0387 35.3156 57.9627 35.3236 57.8987 35.3316C57.8347 35.3396 57.7867 35.3396 57.7547 35.3316C57.5547 35.3236 57.4027 35.2596 57.2987 35.1396C57.1947 35.0196 57.1387 34.8916 57.1307 34.7556L57.1187 34.2996C56.8387 34.6596 56.4747 34.9396 56.0267 35.1396C55.5787 35.3316 55.1227 35.4276 54.6587 35.4276C54.2587 35.4276 53.8947 35.3436 53.5667 35.1756C53.2467 34.9996 52.9947 34.7676 52.8107 34.4796C52.6347 34.1836 52.5467 33.8596 52.5467 33.5076ZM56.7347 33.9876C56.8227 33.8756 56.8907 33.7676 56.9387 33.6636C56.9867 33.5596 57.0107 33.4676 57.0107 33.3876V32.4756C56.7387 32.3716 56.4547 32.2916 56.1587 32.2356C55.8707 32.1796 55.5787 32.1516 55.2827 32.1516C54.6987 32.1516 54.2267 32.2676 53.8667 32.4996C53.5067 32.7316 53.3267 33.0476 53.3267 33.4476C53.3267 33.6796 53.3867 33.8996 53.5067 34.1076C53.6267 34.3076 53.8027 34.4756 54.0347 34.6116C54.2667 34.7396 54.5387 34.8036 54.8507 34.8036C55.2427 34.8036 55.6067 34.7276 55.9427 34.5756C56.2867 34.4236 56.5507 34.2276 56.7347 33.9876ZM63.2029 35.3076V29.7036H62.3389V29.0556H63.2029V28.8876C63.2029 28.3756 63.2749 27.9356 63.4189 27.5676C63.5709 27.1996 63.7829 26.9196 64.0549 26.7276C64.3349 26.5276 64.6629 26.4276 65.0389 26.4276C65.2869 26.4276 65.5269 26.4636 65.7589 26.5356C65.9909 26.6076 66.1909 26.7036 66.3589 26.8236L66.1069 27.4116C66.0029 27.3236 65.8669 27.2556 65.6989 27.2076C65.5309 27.1596 65.3629 27.1356 65.1949 27.1356C64.8189 27.1356 64.5269 27.2836 64.3189 27.5796C64.1189 27.8756 64.0189 28.3036 64.0189 28.8636V29.0556H65.7469V29.7036H64.0189V35.3076H63.2029Z" fill="white"/>
</svg>
