<svg width="62" height="28" viewBox="0 0 62 28" fill="none" xmlns="http://www.w3.org/2000/svg">
<path d="M33.285 5.41623H29.426V15.4292H27.097V5.41623H23.238V3.35923H33.285V5.41623ZM43.9294 13.3722V15.4292H35.5484V3.35923H43.7764V5.41623H37.8944V8.32323H42.9774V10.2272H37.8944V13.3722H43.9294ZM49.8044 3.35923H52.1844L56.6214 15.4292H54.2074L53.0854 12.4202H48.8694L47.7644 15.4292H45.3504L49.8044 3.35923ZM52.6604 10.7712L50.9944 5.79023L49.2604 10.7712H52.6604Z" fill="#2D253D"/>
<path fill-rule="evenodd" clip-rule="evenodd" d="M9 0H0V9.42923C0 14.6369 4.02943 18.8585 9 18.8585H18V9.42923C18 4.22161 13.9706 0 9 0ZM9 3.53596H3.375V9.42923C3.375 12.684 5.8934 15.3225 9 15.3225H14.625V9.42923C14.625 6.17447 12.1066 3.53596 9 3.53596Z" fill="#2D253D" fill-opacity="0.79"/>
<path d="M24.068 27.0492V18.5292H24.908V26.3052H29.828V27.0492H24.068ZM36.8155 27.1692C36.3675 27.1692 35.9515 27.0852 35.5675 26.9172C35.1835 26.7412 34.8515 26.5052 34.5715 26.2092C34.2915 25.9052 34.0715 25.5572 33.9115 25.1652C33.7595 24.7732 33.6835 24.3532 33.6835 23.9052C33.6835 23.3212 33.8155 22.7852 34.0795 22.2972C34.3515 21.8092 34.7235 21.4212 35.1955 21.1332C35.6675 20.8372 36.2035 20.6892 36.8035 20.6892C37.4195 20.6892 37.9555 20.8372 38.4115 21.1332C38.8755 21.4292 39.2395 21.8212 39.5035 22.3092C39.7675 22.7892 39.8995 23.3172 39.8995 23.8932C39.8995 23.9572 39.8995 24.0212 39.8995 24.0852C39.8995 24.1412 39.8955 24.1852 39.8875 24.2172H34.5355C34.5755 24.6652 34.6995 25.0652 34.9075 25.4172C35.1235 25.7612 35.3995 26.0372 35.7355 26.2452C36.0795 26.4452 36.4515 26.5452 36.8515 26.5452C37.2595 26.5452 37.6435 26.4412 38.0035 26.2332C38.3715 26.0252 38.6275 25.7532 38.7715 25.4172L39.4795 25.6092C39.3515 25.9052 39.1555 26.1732 38.8915 26.4132C38.6275 26.6532 38.3155 26.8412 37.9555 26.9772C37.6035 27.1052 37.2235 27.1692 36.8155 27.1692ZM34.5115 23.6292H39.1315C39.0995 23.1732 38.9755 22.7732 38.7595 22.4292C38.5515 22.0852 38.2755 21.8172 37.9315 21.6252C37.5955 21.4252 37.2235 21.3252 36.8155 21.3252C36.4075 21.3252 36.0355 21.4252 35.6995 21.6252C35.3635 21.8172 35.0875 22.0892 34.8715 22.4412C34.6635 22.7852 34.5435 23.1812 34.5115 23.6292ZM44.0144 25.2492C44.0144 24.8572 44.1264 24.5212 44.3504 24.2412C44.5744 23.9532 44.8824 23.7332 45.2744 23.5812C45.6744 23.4212 46.1344 23.3412 46.6544 23.3412C46.9584 23.3412 47.2744 23.3652 47.6024 23.4132C47.9304 23.4612 48.2224 23.5332 48.4784 23.6292V23.1012C48.4784 22.5732 48.3224 22.1532 48.0104 21.8412C47.6984 21.5292 47.2664 21.3732 46.7144 21.3732C46.3784 21.3732 46.0464 21.4372 45.7184 21.5652C45.3984 21.6852 45.0624 21.8652 44.7104 22.1052L44.3984 21.5292C44.8064 21.2492 45.2064 21.0412 45.5984 20.9052C45.9904 20.7612 46.3904 20.6892 46.7984 20.6892C47.5664 20.6892 48.1744 20.9092 48.6224 21.3492C49.0704 21.7892 49.2944 22.3972 49.2944 23.1732V26.0652C49.2944 26.1772 49.3184 26.2612 49.3664 26.3172C49.4144 26.3652 49.4904 26.3932 49.5944 26.4012V27.0492C49.5064 27.0572 49.4304 27.0652 49.3664 27.0732C49.3024 27.0812 49.2544 27.0812 49.2224 27.0732C49.0224 27.0652 48.8704 27.0012 48.7664 26.8812C48.6624 26.7612 48.6064 26.6332 48.5984 26.4972L48.5864 26.0412C48.3064 26.4012 47.9424 26.6812 47.4944 26.8812C47.0464 27.0732 46.5904 27.1692 46.1264 27.1692C45.7264 27.1692 45.3624 27.0852 45.0344 26.9172C44.7144 26.7412 44.4624 26.5092 44.2784 26.2212C44.1024 25.9252 44.0144 25.6012 44.0144 25.2492ZM48.2024 25.7292C48.2904 25.6172 48.3584 25.5092 48.4064 25.4052C48.4544 25.3012 48.4784 25.2092 48.4784 25.1292V24.2172C48.2064 24.1132 47.9224 24.0332 47.6264 23.9772C47.3384 23.9212 47.0464 23.8932 46.7504 23.8932C46.1664 23.8932 45.6944 24.0092 45.3344 24.2412C44.9744 24.4732 44.7944 24.7892 44.7944 25.1892C44.7944 25.4212 44.8544 25.6412 44.9744 25.8492C45.0944 26.0492 45.2704 26.2172 45.5024 26.3532C45.7344 26.4812 46.0064 26.5452 46.3184 26.5452C46.7104 26.5452 47.0744 26.4692 47.4104 26.3172C47.7544 26.1652 48.0184 25.9692 48.2024 25.7292ZM54.6706 27.0492V21.4452H53.8066V20.7972H54.6706V20.6292C54.6706 20.1172 54.7426 19.6772 54.8866 19.3092C55.0386 18.9412 55.2506 18.6612 55.5226 18.4692C55.8026 18.2692 56.1306 18.1692 56.5066 18.1692C56.7546 18.1692 56.9946 18.2052 57.2266 18.2772C57.4586 18.3492 57.6586 18.4452 57.8266 18.5652L57.5746 19.1532C57.4706 19.0652 57.3346 18.9972 57.1666 18.9492C56.9986 18.9012 56.8306 18.8772 56.6626 18.8772C56.2866 18.8772 55.9946 19.0252 55.7866 19.3212C55.5866 19.6172 55.4866 20.0452 55.4866 20.6052V20.7972H57.2146V21.4452H55.4866V27.0492H54.6706Z" fill="#2D253D"/>
</svg>
