<svg width="65" height="64" viewBox="0 0 65 64" fill="none" xmlns="http://www.w3.org/2000/svg">
<path d="M2.83947 63.4114C2.14932 63.4114 1.45916 63.1524 0.93346 62.6372C-0.120642 61.6042 -0.120642 59.9343 0.93346 58.9013L60.2436 0.7748C61.2977 -0.258267 63.0015 -0.258267 64.0556 0.7748C65.1097 1.80787 65.1097 3.47768 64.0556 4.51075L4.74548 62.6372C4.21978 63.1524 3.52963 63.4114 2.83947 63.4114ZM24.4068 13.2112C24.4068 7.38272 19.5703 2.64277 13.6231 2.64277C7.67594 2.64277 2.83947 7.38272 2.83947 13.2112C2.83947 19.0397 7.67594 23.7797 13.6231 23.7797C19.5703 23.7797 24.4068 19.0397 24.4068 13.2112ZM19.015 13.2112C19.015 16.1255 16.5967 18.4955 13.6231 18.4955C10.6495 18.4955 8.2313 16.1255 8.2313 13.2112C8.2313 10.297 10.6495 7.927 13.6231 7.927C16.5967 7.927 19.015 10.297 19.015 13.2112ZM62.1496 50.2008C62.1496 44.3723 57.3131 39.6324 51.3659 39.6324C45.4187 39.6324 40.5823 44.3723 40.5823 50.2008C40.5823 56.0293 45.4187 60.7693 51.3659 60.7693C57.3131 60.7693 62.1496 56.0293 62.1496 50.2008ZM56.7578 50.2008C56.7578 53.1151 54.3395 55.485 51.3659 55.485C48.3923 55.485 45.9741 53.1151 45.9741 50.2008C45.9741 47.2866 48.3923 44.9166 51.3659 44.9166C54.3395 44.9166 56.7578 47.2866 56.7578 50.2008Z" fill="#472631"/>
</svg>
