<svg width="15" height="16" viewBox="0 0 15 16" fill="none" xmlns="http://www.w3.org/2000/svg">
<path d="M14.7256 13.9033L11.8224 10.9988C13.9947 8.09584 13.4024 3.98147 10.4994 1.80914C7.59645 -0.363186 3.48207 0.229136 1.30975 3.13212C-0.862579 6.0351 -0.270257 10.1495 2.63273 12.3218C4.96464 14.0668 8.16748 14.0668 10.4994 12.3218L13.4039 15.2262C13.7689 15.5912 14.3606 15.5912 14.7256 15.2262C15.0906 14.8613 15.0906 14.2695 14.7256 13.9045L14.7256 13.9033ZM6.59028 11.7612C4.01025 11.7612 1.91874 9.66971 1.91874 7.08968C1.91874 4.50964 4.01025 2.41813 6.59028 2.41813C9.17032 2.41813 11.2618 4.50964 11.2618 7.08968C11.2591 9.66854 9.16918 11.7585 6.59028 11.7612Z" fill="#2D253D" fill-opacity="0.41"/>
</svg>
