<svg width="71" height="71" viewBox="0 0 71 71" fill="none" xmlns="http://www.w3.org/2000/svg">
<path d="M46.146 70.0463C45.075 70.0463 44.0248 69.6854 43.155 68.9902L35.5016 62.8811L27.8482 68.9902C26.5258 70.0463 24.7892 70.3303 23.2005 69.7534C21.6089 69.1766 20.461 67.8394 20.1238 66.1797L18.189 56.5796L8.39662 56.34C6.70737 56.2986 5.19266 55.3992 4.34655 53.9348C3.50045 52.4704 3.47974 50.7101 4.28739 49.225L8.97647 40.6279L1.63073 34.149C0.361573 33.0307 -0.218275 31.371 0.0746074 29.7025C0.36749 28.0398 1.48281 26.676 3.05669 26.0547L12.1775 22.481L10.7131 12.801C10.4586 11.1266 11.0829 9.47875 12.3786 8.39302C13.6715 7.30432 15.4021 6.97298 17.0056 7.52028L26.2891 10.6414L31.3924 2.28389C33.1142 -0.760311 37.8831 -0.760311 39.6079 2.27798L44.7111 10.6355L53.9946 7.51437C55.5951 6.97002 57.3258 7.2984 58.6216 8.3871C59.9174 9.47284 60.5386 11.1236 60.2842 12.7951L58.8198 22.4751L67.9406 26.0488C69.5174 26.6701 70.6327 28.0339 70.9256 29.6995C71.2185 31.3621 70.6357 33.0248 69.3665 34.143L62.0208 40.619L66.7099 49.2161C67.5205 50.7013 67.4998 52.4615 66.6537 53.9259C65.8076 55.3904 64.2929 56.2927 62.6006 56.3311L52.8083 56.5708L50.8735 66.1708C50.5392 67.8305 49.3913 69.1647 47.7997 69.7446C47.2583 69.9398 46.6962 70.0404 46.143 70.0404L46.146 70.0463ZM35.5016 59.5085C35.827 59.5085 36.1554 59.615 36.4246 59.8309L45.0011 66.6767C45.5158 67.0938 46.1726 67.1944 46.7909 66.9696C47.4122 66.7447 47.8441 66.2418 47.9743 65.5939L50.1428 54.8342C50.2789 54.1567 50.8676 53.6626 51.5569 53.6478L62.5267 53.3786C63.1894 53.3638 63.7574 53.0266 64.0887 52.4527C64.4201 51.8817 64.426 51.219 64.1094 50.6391L58.8553 41.0036C58.524 40.3971 58.6571 39.6427 59.1748 39.1871L67.4081 31.9301C67.9021 31.4953 68.124 30.871 68.0086 30.2172C67.8932 29.5634 67.4732 29.0486 66.8548 28.809L56.6365 24.8033C55.9945 24.5489 55.6099 23.8862 55.7135 23.2028L57.3554 12.3514C57.453 11.6976 57.2193 11.0793 56.7134 10.6532C56.2105 10.2331 55.5626 10.1119 54.9295 10.3189L44.5247 13.8187C43.8769 14.0347 43.152 13.7744 42.7911 13.1886L37.0725 3.82227C36.3832 2.6892 34.5963 2.6892 33.904 3.82227L28.1854 13.1886C27.8245 13.7744 27.1027 14.0347 26.4518 13.8187L16.05 10.3189C15.4228 10.1148 14.772 10.2361 14.2661 10.6532C13.7602 11.0793 13.5265 11.7005 13.6241 12.3543L15.2631 23.2028C15.3666 23.8862 14.985 24.5489 14.3401 24.8033L4.12172 28.809C3.50637 29.0486 3.08627 29.5634 2.97089 30.2172C2.85552 30.8681 3.07444 31.4953 3.57145 31.9301L11.8047 39.1871C12.3224 39.6427 12.4556 40.3971 12.1242 41.0036L6.87008 50.6391C6.55353 51.219 6.56241 51.8817 6.89079 52.4527C7.22213 53.0266 7.79015 53.3668 8.45283 53.3786L19.4256 53.6478C20.1149 53.6656 20.7036 54.1567 20.8397 54.8342L23.0082 65.5939C23.1384 66.2418 23.5703 66.7447 24.1945 66.9696C24.8188 67.2003 25.4726 67.0909 25.9844 66.6767L34.5608 59.8309C34.83 59.615 35.1584 59.5085 35.4838 59.5085H35.5016Z" fill="#28441C"/>
</svg>
