<svg width="12" height="16" viewBox="0 0 12 16" fill="none" xmlns="http://www.w3.org/2000/svg">
<g clip-path="url(#clip0_14_75)">
<path d="M6 8C6.79113 8 7.56448 7.78007 8.22228 7.36801C8.88008 6.95596 9.39277 6.37029 9.69552 5.68506C9.99827 4.99984 10.0775 4.24584 9.92314 3.51841C9.7688 2.79098 9.38784 2.1228 8.82843 1.59835C8.26902 1.0739 7.55629 0.716751 6.78036 0.572057C6.00444 0.427362 5.20017 0.501625 4.46927 0.785453C3.73836 1.06928 3.11365 1.54993 2.67412 2.16661C2.2346 2.7833 2 3.50832 2 4.25C2.00106 5.24426 2.42283 6.19751 3.17274 6.90056C3.92266 7.6036 4.93946 7.99901 6 8ZM6 1.75C6.52742 1.75 7.04299 1.89662 7.48152 2.17133C7.92005 2.44603 8.26185 2.83648 8.46368 3.29329C8.66551 3.75011 8.71832 4.25277 8.61543 4.73773C8.51253 5.22268 8.25856 5.66814 7.88562 6.01777C7.51268 6.3674 7.03752 6.6055 6.52024 6.70196C6.00296 6.79843 5.46678 6.74892 4.97951 6.5597C4.49224 6.37048 4.07577 6.05005 3.78275 5.63893C3.48973 5.2278 3.33333 4.74445 3.33333 4.25C3.33333 3.58696 3.61428 2.95108 4.11438 2.48223C4.61448 2.01339 5.29276 1.75 6 1.75Z" fill="#7F7B88"/>
<path d="M6 9.24999C4.40924 9.25165 2.88414 9.84481 1.75931 10.8993C0.634472 11.9539 0.00176457 13.3837 0 14.875C0 15.0408 0.0702379 15.1997 0.195262 15.3169C0.320286 15.4341 0.489856 15.5 0.666667 15.5C0.843478 15.5 1.01305 15.4341 1.13807 15.3169C1.2631 15.1997 1.33333 15.0408 1.33333 14.875C1.33333 13.7147 1.825 12.6019 2.70017 11.7814C3.57534 10.9609 4.76232 10.5 6 10.5C7.23768 10.5 8.42466 10.9609 9.29983 11.7814C10.175 12.6019 10.6667 13.7147 10.6667 14.875C10.6667 15.0408 10.7369 15.1997 10.8619 15.3169C10.987 15.4341 11.1565 15.5 11.3333 15.5C11.5101 15.5 11.6797 15.4341 11.8047 15.3169C11.9298 15.1997 12 15.0408 12 14.875C11.9982 13.3837 11.3655 11.9539 10.2407 10.8993C9.11586 9.84481 7.59076 9.25165 6 9.24999Z" fill="#7F7B88"/>
</g>
<defs>
<clipPath id="clip0_14_75">
<rect width="12" height="15" fill="white" transform="translate(0 0.5)"/>
</clipPath>
</defs>
</svg>
